<?xml version="1.0" encoding="utf-8"?>
<!-- Generator: Adobe Illustrator 22.1.0, SVG Export Plug-In . SVG Version: 6.00 Build 0)  -->
<svg version="1.1" xmlns="http://www.w3.org/2000/svg" xmlns:xlink="http://www.w3.org/1999/xlink" x="0px" y="0px"
	 viewBox="0 0 1920 1080" style="enable-background:new 0 0 1920 1080;" xml:space="preserve">
<style type="text/css">
	.st0{fill:#5E5E5E;}
	.st1{fill:#C62437;}
	.st2{fill:#798389;}
	.st3{opacity:0.2;fill:#0D3547;}
	.st4{fill:#0C4465;}
	.st5{fill:#165372;}
	.st6{fill:#BDC4CA;}
	.st7{fill:#DEDFE0;}
	.st8{opacity:0.4;fill:#FFFFFF;}
	.st9{fill:#0D3547;}
	.st10{opacity:0.4;fill:#0D3547;}
</style>
<g id="Layer_1">
	<image style="display:none;overflow:visible;enable-background:new    ;" width="1920" height="1080" xlink:href="4A214759.jpeg" >
	</image>
	<polygon class="st0" points="1920,366.7 0,591 0,0 1920,0 	"/>
</g>
<g id="Layer_2">
	<g>
		<polygon class="st1" points="986.8,265.2 645.1,305.1 670.8,291.7 985.6,255 		"/>
		<g>
			
				<rect x="878.4" y="418.7" transform="matrix(0.9933 -0.116 0.116 0.9933 -43.8506 108.642)" class="st2" width="66.5" height="24.9"/>
			
				<rect x="918.5" y="427.6" transform="matrix(0.9933 -0.116 0.116 0.9933 -44.3887 109.6664)" class="st3" width="3.4" height="17.4"/>
			
				<rect x="923.8" y="427" transform="matrix(0.9933 -0.116 0.116 0.9933 -44.2819 110.2725)" class="st4" width="3.4" height="17.4"/>
			
				<rect x="893.9" y="433.1" transform="matrix(0.9933 -0.116 0.116 0.9933 -44.3207 108.9479)" class="st3" width="40.4" height="4.5"/>
		</g>
		<g>
			
				<rect x="458.1" y="467.8" transform="matrix(0.9933 -0.116 0.116 0.9933 -52.3789 60.2258)" class="st2" width="66.5" height="24.9"/>
			
				<rect x="498.2" y="476.7" transform="matrix(0.9933 -0.116 0.116 0.9933 -52.917 61.2501)" class="st3" width="3.4" height="17.4"/>
			
				<rect x="503.4" y="476" transform="matrix(0.9933 -0.116 0.116 0.9933 -52.8103 61.8562)" class="st4" width="3.4" height="17.4"/>
			
				<rect x="473.5" y="482.2" transform="matrix(0.9933 -0.116 0.116 0.9933 -52.8491 60.5317)" class="st3" width="40.4" height="4.5"/>
		</g>
		<g>
			
				<rect x="284.2" y="489.6" transform="matrix(0.9933 -0.116 0.116 0.9933 -52.735 81.9581)" class="st4" width="787.5" height="9.1"/>
			<g>
				
					<rect x="305.6" y="536" transform="matrix(0.9933 -0.116 0.116 0.9933 -60.5082 40.7293)" class="st5" width="28.3" height="8.7"/>
				
					<rect x="360.8" y="529.6" transform="matrix(0.9933 -0.116 0.116 0.9933 -59.3886 47.0856)" class="st5" width="28.3" height="8.7"/>
				
					<rect x="416" y="523.1" transform="matrix(0.9933 -0.116 0.116 0.9933 -58.2689 53.442)" class="st5" width="28.3" height="8.7"/>
				
					<rect x="471.2" y="516.7" transform="matrix(0.9933 -0.116 0.116 0.9933 -57.1493 59.7983)" class="st5" width="28.3" height="8.7"/>
				
					<rect x="526.3" y="510.2" transform="matrix(0.9933 -0.116 0.116 0.9933 -56.0296 66.1546)" class="st5" width="28.3" height="8.7"/>
				
					<rect x="581.5" y="503.8" transform="matrix(0.9933 -0.116 0.116 0.9933 -54.91 72.5109)" class="st5" width="28.3" height="8.7"/>
				
					<rect x="636.7" y="497.3" transform="matrix(0.9933 -0.116 0.116 0.9933 -53.7904 78.8672)" class="st5" width="28.3" height="8.7"/>
				
					<rect x="691.9" y="490.9" transform="matrix(0.9933 -0.116 0.116 0.9933 -52.6707 85.2235)" class="st5" width="28.3" height="8.7"/>
				
					<rect x="747.1" y="484.5" transform="matrix(0.9933 -0.116 0.116 0.9933 -51.5511 91.5799)" class="st5" width="28.3" height="8.7"/>
				
					<rect x="802.2" y="478" transform="matrix(0.9933 -0.116 0.116 0.9933 -50.4314 97.9362)" class="st5" width="28.3" height="8.7"/>
				
					<rect x="857.4" y="471.6" transform="matrix(0.9933 -0.116 0.116 0.9933 -49.3118 104.2925)" class="st5" width="28.3" height="8.7"/>
				
					<rect x="912.6" y="465.1" transform="matrix(0.9933 -0.116 0.116 0.9933 -48.1921 110.6488)" class="st5" width="28.3" height="8.7"/>
				
					<rect x="967.8" y="458.7" transform="matrix(0.9933 -0.116 0.116 0.9933 -47.0725 117.0051)" class="st5" width="28.3" height="8.7"/>
				
					<rect x="1023" y="452.2" transform="matrix(0.9933 -0.116 0.116 0.9933 -45.9528 123.3614)" class="st5" width="28.3" height="8.7"/>
			</g>
		</g>
		<g>
			<circle class="st6" cx="454.3" cy="494.4" r="22.2"/>
			<path class="st2" d="M457.1,518.4c-13.2,1.5-25.3-8-26.8-21.2c-1.5-13.2,8-25.3,21.2-26.8c13.2-1.5,25.3,8,26.8,21.2
				C479.9,504.8,470.4,516.9,457.1,518.4z M452,474.5c-11,1.3-18.8,11.2-17.6,22.2c1.3,11,11.2,18.8,22.2,17.6
				c11-1.3,18.8-11.2,17.6-22.2C472.9,481.1,463,473.2,452,474.5z"/>
			<circle class="st2" cx="454.3" cy="494.4" r="4.4"/>
		</g>
		<g>
			<circle class="st6" cx="529.8" cy="485.6" r="22.2"/>
			<path class="st2" d="M532.6,509.6c-13.2,1.5-25.3-8-26.8-21.2c-1.5-13.2,8-25.3,21.2-26.8c13.2-1.5,25.3,8,26.8,21.2
				C555.3,496,545.8,508,532.6,509.6z M527.5,465.7c-11,1.3-18.8,11.2-17.6,22.2c1.3,11,11.2,18.8,22.2,17.6
				c11-1.3,18.8-11.2,17.6-22.2C548.4,472.3,538.4,464.4,527.5,465.7z"/>
			<circle class="st2" cx="529.8" cy="485.6" r="4.4"/>
		</g>
		<g>
			<circle class="st6" cx="874.7" cy="445.3" r="22.2"/>
			<path class="st2" d="M877.5,469.3c-13.2,1.5-25.3-8-26.8-21.2c-1.5-13.2,8-25.3,21.2-26.8c13.2-1.5,25.3,8,26.8,21.2
				C900.3,455.7,890.8,467.8,877.5,469.3z M872.4,425.4c-11,1.3-18.8,11.2-17.6,22.2c1.3,11,11.2,18.8,22.2,17.6
				c11-1.3,18.8-11.2,17.6-22.2C893.3,432,883.4,424.1,872.4,425.4z"/>
			<circle class="st2" cx="874.7" cy="445.3" r="4.4"/>
		</g>
		<g>
			<circle class="st6" cx="950.2" cy="436.5" r="22.2"/>
			<path class="st2" d="M953,460.5c-13.2,1.5-25.3-8-26.8-21.2c-1.5-13.2,8-25.3,21.2-26.8c13.2-1.5,25.3,8,26.8,21.2
				C975.8,446.9,966.2,459,953,460.5z M947.9,416.6c-11,1.3-18.8,11.2-17.6,22.2c1.3,11,11.2,18.8,22.2,17.6
				c11-1.3,18.8-11.2,17.6-22.2C968.8,423.2,958.8,415.3,947.9,416.6z"/>
			<path class="st2" d="M954.5,436c0.3,2.4-1.4,4.6-3.9,4.9c-2.4,0.3-4.6-1.4-4.9-3.9c-0.3-2.4,1.4-4.6,3.9-4.9
				C952.1,431.8,954.3,433.6,954.5,436z"/>
		</g>
		
			<rect x="431.5" y="450.7" transform="matrix(0.9933 -0.116 0.116 0.9933 -48.0537 84.7665)" class="st3" width="545.9" height="9.2"/>
		<path class="st7" d="M992.6,258.7l15.9,136.2l-702.5,82c-2.5,0.3-4.8-0.4-6.4-1.8c-1.9-1.4-3.1-3.6-3.4-6l0-0.1
			c-0.3-2.2,0.3-4.6,2-6.6c3.8-4.6,7.9-9,12.1-13.4c0.5-0.6,1.1-1.1,1.6-1.7c5.3-5.4,10.8-10.7,16.6-15.8c0.9-0.8,1.8-1.6,2.7-2.3
			c41.8-36.2,94.5-65.3,137.6-85.7c44.6-21,92.4-34.5,141.4-40.3L992.6,258.7z"/>
		<path class="st1" d="M328.7,431.4c-0.1,0.1-0.1,0.1-0.2,0.2c-5.8,5.1-11.4,10.4-16.6,15.8l20.4-2.4c6.5-0.8,12.6-2.9,18.1-6.3
			c4.7-2.9,8.9-6.7,12.2-11.2L328.7,431.4z"/>
		<path class="st3" d="M1003.6,352.8l4.9,42.1l-702.5,82c-2.5,0.3-4.8-0.4-6.4-1.8c-1.9-1.4-3.1-3.6-3.4-6l0-0.1
			c-0.3-2.2,0.3-4.6,2-6.6c1.9-2.2,3.8-4.4,5.7-6.6c2.1-2.3,4.2-4.6,6.4-6.8c5.8-6,11.9-11.8,18.3-17.4L1003.6,352.8z"/>
		
			<rect x="556.8" y="384.8" transform="matrix(0.9933 -0.116 0.116 0.9933 -39.5916 93.2382)" class="st1" width="449.2" height="4.1"/>
		<path class="st3" d="M1006,373.8l2.5,21.1l-702.5,82c-2.5,0.3-4.8-0.4-6.4-1.8c-1.9-1.4-3.1-3.6-3.4-6l0-0.1
			c-0.3-2.2,0.3-4.6,2-6.6c1.9-2.2,3.8-4.4,5.7-6.6L1006,373.8z"/>
		<path class="st8" d="M992.6,258.7l1.7,14.3c-79.5,8.4-276,29.5-404.7,47.7C425.1,344,307,468.2,307,468.2l-7.4,6.9
			c-1.9-1.4-3.1-3.6-3.4-6l0-0.1c-0.3-2.2,0.3-4.6,2-6.6c3.8-4.6,7.9-9,12.1-13.4c43.9-45.5,107.9-81.5,158.6-105.4
			c44.6-21,92.4-34.5,141.4-40.3L992.6,258.7z"/>
		<path class="st9" d="M296.1,469.5l1.3,11.4c1,8.9,4.9,16.8,10.5,22.9c8.6,9.4,21.4,14.6,34.9,13l670.7-78.3l-6.1-52.1L296.1,469.5
			z M539.6,484.4l-94.2,11l-1.2-10.3l94.2-11L539.6,484.4z M962.3,435.1l-94.2,11l-1.2-10.3l94.2-11L962.3,435.1z"/>
		<path class="st9" d="M526.2,321.2c0,0-3.1,2.9-8.4,7.6c-23.8,20.7-93.1,77.1-149.8,82.4c-4.9,0.5-9.8,0.5-14.5,0.1
			C353.4,411.3,423.7,329.4,526.2,321.2z"/>
		<polygon class="st1" points="434.9,434.8 421.8,454.8 1007.5,386.4 1005.3,368.2 		"/>
		
			<rect x="1002.7" y="263.7" transform="matrix(0.9933 -0.116 0.116 0.9933 -33.008 120.861)" class="st5" width="38.8" height="160.7"/>
		<path class="st8" d="M526.2,321.2c0,0-3.1,2.9-8.4,7.6C439.5,346,381,398.6,368,411.2c-4.9,0.5-9.8,0.5-14.5,0.1
			C353.4,411.3,423.7,329.4,526.2,321.2z"/>
		<path class="st3" d="M1011.6,421.7l2,16.9l-670.7,78.3c-13.6,1.6-26.4-3.6-34.9-13l136.5-15.9l0.9,7.5l94.2-11l-0.9-7.5
			l328.5-38.4l0.9,7.5l94.2-11l-0.9-7.5L1011.6,421.7z"/>
		
			<rect x="1002.8" y="265.5" transform="matrix(0.9933 -0.116 0.116 0.9933 -33.3272 119.0487)" class="st9" width="7.1" height="160.7"/>
		<path class="st9" d="M1035.1,285.7l-31.9,3.7c-1.9,0.2-3.6-1.1-3.8-3l0,0c-0.2-1.9,1.1-3.6,3-3.8l31.9-3.7c1.9-0.2,3.6,1.1,3.8,3
			l0,0C1038.3,283.8,1037,285.5,1035.1,285.7z"/>
		<path class="st9" d="M1039.7,325.4l-31.9,3.7c-1.9,0.2-3.6-1.1-3.8-3l0,0c-0.2-1.9,1.1-3.6,3-3.8l31.9-3.7c1.9-0.2,3.6,1.1,3.8,3
			l0,0C1043,323.5,1041.6,325.2,1039.7,325.4z"/>
		<path class="st9" d="M1044.4,365.1l-31.9,3.7c-1.9,0.2-3.6-1.1-3.8-3l0,0c-0.2-1.9,1.1-3.6,3-3.8l31.9-3.7c1.9-0.2,3.6,1.1,3.8,3
			l0,0C1047.6,363.2,1046.3,364.9,1044.4,365.1z"/>
		<path class="st9" d="M1049,404.8l-31.9,3.7c-1.9,0.2-3.6-1.1-3.8-3l0,0c-0.2-1.9,1.1-3.6,3-3.8l31.9-3.7c1.9-0.2,3.6,1.1,3.8,3
			l0,0C1052.2,402.9,1050.9,404.6,1049,404.8z"/>
		<polygon class="st9" points="979.7,292.2 983.1,321.9 528.2,375 555.7,341.7 		"/>
		<polygon class="st8" points="685.9,326.5 659.7,359.6 637.7,362.2 663.9,329.1 		"/>
		<polygon class="st8" points="605.4,335.9 579.2,369.1 567.4,370.4 593.6,337.3 		"/>
		<polygon class="st8" points="869,305.1 842.8,338.3 831.8,339.6 858,306.4 		"/>
		<polygon class="st8" points="949.9,295.7 923.7,328.8 912.7,330.1 939,297 		"/>
		<polygon class="st8" points="846.7,307.7 820.6,340.9 750.1,349.1 776.3,315.9 		"/>
		<polygon class="st8" points="738.4,320.4 712.1,353.5 674.5,357.9 700.7,324.8 		"/>
		
			<rect x="561.9" y="341.1" transform="matrix(0.9933 -0.116 0.116 0.9933 -41.3796 67.9559)" class="st10" width="2.8" height="96.8"/>
		
			<rect x="615.3" y="334.9" transform="matrix(0.9933 -0.116 0.116 0.9933 -40.2964 74.105)" class="st10" width="2.8" height="96.8"/>
		
			<rect x="911.5" y="300.3" transform="matrix(0.9933 -0.116 0.116 0.9933 -34.2859 108.2275)" class="st10" width="2.8" height="96.8"/>
		
			<rect x="964.9" y="294.1" transform="matrix(0.9933 -0.116 0.116 0.9933 -33.2027 114.3766)" class="st10" width="2.8" height="96.8"/>
		<rect x="444.6" y="448.1" transform="matrix(0.9933 -0.116 0.116 0.9933 -49.2562 55.662)" class="st7" width="18.2" height="6"/>
		
			<rect x="884.7" y="396.7" transform="matrix(0.9933 -0.116 0.116 0.9933 -40.3272 106.3524)" class="st7" width="18.2" height="6"/>
	</g>
</g>
</svg>
